<?xml version="1.0" encoding="UTF-8"?>
<!DOCTYPE svg PUBLIC "-//W3C//DTD SVG 1.1//EN" "http://www.w3.org/Graphics/SVG/1.1/DTD/svg11.dtd">
<svg xmlns="http://www.w3.org/2000/svg" version="1.1" width="40px" height="40px" style="shape-rendering:geometricPrecision; text-rendering:geometricPrecision; image-rendering:optimizeQuality; fill-rule:evenodd; clip-rule:evenodd" xmlns:xlink="http://www.w3.org/1999/xlink">
<g><path style="opacity:0.91" fill="#24262b" d="M 14.5,-0.5 C 16.8333,-0.5 19.1667,-0.5 21.5,-0.5C 21.5,0.833333 21.5,2.16667 21.5,3.5C 24.001,2.17363 26.6677,1.67363 29.5,2C 32.5018,5.49326 31.8351,7.99326 27.5,9.5C 25.8957,9.06095 24.3957,8.39428 23,7.5C 19.9626,8.91317 16.7959,10.0798 13.5,11C 8.16667,16.6667 8.16667,22.3333 13.5,28C 16.7959,28.9202 19.9626,30.0868 23,31.5C 28.3572,27.9852 31.0238,29.3186 31,35.5C 30.5,36 30,36.5 29.5,37C 26.6677,37.3264 24.001,36.8264 21.5,35.5C 21.5,36.8333 21.5,38.1667 21.5,39.5C 19.1667,39.5 16.8333,39.5 14.5,39.5C 14.719,38.325 14.3857,37.325 13.5,36.5C 11.5741,35.9394 9.57415,35.7727 7.5,36C 6,34.5 4.5,33 3,31.5C 3.22725,29.4259 3.06058,27.4259 2.5,25.5C 1.67504,24.6143 0.675044,24.281 -0.5,24.5C -0.5,21.1667 -0.5,17.8333 -0.5,14.5C 0.675044,14.719 1.67504,14.3857 2.5,13.5C 3.06058,11.5741 3.22725,9.57415 3,7.5C 4.5,6 6,4.5 7.5,3C 9.57415,3.22725 11.5741,3.06058 13.5,2.5C 14.3857,1.67504 14.719,0.675044 14.5,-0.5 Z"/></g>
<g><path style="opacity:0.763" fill="#24262b" d="M 39.5,7.5 C 39.5,9.16667 39.5,10.8333 39.5,12.5C 37.6368,14.6173 35.4701,14.9507 33,13.5C 28.0668,15.1949 22.9002,16.0282 17.5,16C 14.8333,18.3333 14.8333,20.6667 17.5,23C 22.9002,22.9718 28.0668,23.8051 33,25.5C 35.4701,24.0493 37.6368,24.3827 39.5,26.5C 39.5,28.1667 39.5,29.8333 39.5,31.5C 35.302,34.2326 32.302,33.0659 30.5,28C 26.1667,27.6667 21.8333,27.3333 17.5,27C 9.5,22 9.5,17 17.5,12C 21.8333,11.6667 26.1667,11.3333 30.5,11C 32.302,5.93407 35.302,4.7674 39.5,7.5 Z"/></g>
<g><path style="opacity:0.809" fill="#24262b" d="M 39.5,17.5 C 39.5,18.8333 39.5,20.1667 39.5,21.5C 38.6009,22.4715 37.4343,23.1382 36,23.5C 30.3782,21.8419 24.5449,21.0086 18.5,21C 17.1667,20 17.1667,19 18.5,18C 24.5449,17.9914 30.3782,17.1581 36,15.5C 37.4343,15.8618 38.6009,16.5285 39.5,17.5 Z"/></g>
</svg>
