<?xml version="1.0" standalone="no"?>
<!DOCTYPE svg PUBLIC "-//W3C//DTD SVG 20010904//EN"
 "http://www.w3.org/TR/2001/REC-SVG-20010904/DTD/svg10.dtd">
<svg version="1.0" xmlns="http://www.w3.org/2000/svg"
 width="40.000000pt" height="40.000000pt" viewBox="0 0 40.000000 40.000000"
 preserveAspectRatio="xMidYMid meet">
<metadata>
Created by potrace 1.16, written by Peter Selinger 2001-2019
</metadata>
<g transform="translate(0.000000,40.000000) scale(0.100000,-0.100000)"
fill="#000000" stroke="none">
<path d="M0 325 c0 -57 3 -75 14 -75 17 0 26 22 20 47 -7 24 48 78 70 70 21
-8 46 2 46 19 0 11 -18 14 -75 14 l-75 0 0 -75z"/>
<path d="M220 380 c0 -23 12 -25 40 -8 26 17 55 0 55 -32 0 -33 -27 -47 -58
-31 -17 9 -30 10 -43 3 -11 -6 -34 -16 -52 -23 -80 -29 -80 -148 0 -179 18 -6
43 -16 54 -22 15 -7 27 -6 43 3 27 18 56 1 56 -31 0 -32 -29 -49 -55 -32 -28
17 -40 15 -40 -8 0 -19 7 -20 90 -20 l90 0 0 40 c0 39 -1 40 -21 29 -19 -10
-26 -7 -51 20 -26 28 -35 31 -88 31 -73 0 -113 28 -113 79 0 52 31 74 110 79
59 4 71 8 95 34 23 25 30 27 48 18 19 -10 20 -8 20 30 l0 40 -90 0 c-83 0 -90
-1 -90 -20z"/>
<path d="M385 260 c-3 -5 -18 -9 -33 -10 -91 -1 -176 -16 -186 -33 -26 -41 29
-62 184 -68 14 0 31 -5 38 -11 9 -8 12 -5 12 10 0 15 -5 19 -21 15 -11 -3 -30
-1 -42 6 -12 6 -51 12 -87 13 -50 2 -65 6 -65 18 0 12 15 16 65 18 36 1 75 7
87 13 12 7 31 9 42 6 16 -4 21 0 21 14 0 21 -6 24 -15 9z"/>
<path d="M0 75 l0 -75 75 0 c57 0 75 3 75 14 0 17 -22 26 -47 20 -24 -7 -78
48 -70 70 8 21 -2 46 -19 46 -11 0 -14 -18 -14 -75z"/>
</g>
</svg>
